# This file uses centimeters as units for non-parametric coordinates.

mtllib Cube.mtl
g default
v -0.440649 -0.500000 0.440649
v 0.440649 -0.500000 0.440649
v -0.500000 0.500000 0.500000
v 0.500000 0.500000 0.500000
v -0.500000 0.500000 -0.500000
v 0.500000 0.500000 -0.500000
v -0.440649 -0.500000 -0.440649
v 0.440649 -0.500000 -0.440649
v -0.392885 0.392885 -0.493643
v 0.392885 0.392885 -0.493643
v 0.346249 -0.392885 -0.447007
v -0.346249 -0.392885 -0.447007
v -0.392885 0.403616 -0.312833
v 0.392885 0.403616 -0.312833
v 0.346249 -0.382154 -0.266198
v -0.346249 -0.382154 -0.266198
v -0.449514 -0.350647 0.449514
v 0.449514 -0.350647 0.449514
v 0.449514 -0.350647 -0.449514
v 0.353214 -0.275528 -0.453972
v 0.353214 -0.264797 -0.273163
v -0.353214 -0.264797 -0.273163
v -0.353214 -0.275528 -0.453972
v -0.449514 -0.350647 -0.449514
v -0.500000 0.500000 0.306985
v 0.500000 0.500000 0.306985
v 0.449514 -0.350647 0.275988
v 0.440649 -0.500000 0.270546
v -0.440649 -0.500000 0.270546
v -0.449514 -0.350647 0.275988
v -0.440649 -0.500000 -0.261582
v 0.440649 -0.500000 -0.261582
v 0.449514 -0.350647 -0.266844
v 0.500000 0.500000 -0.296814
v -0.500000 0.500000 -0.296814
v -0.449514 -0.350647 -0.266844
v 0.617170 -0.498019 0.378924
v 0.629527 -0.492017 0.482873
v 0.629585 -0.469644 0.386546
v 0.642191 -0.475647 0.492586
v -0.617170 -0.498019 0.378924
v -0.629585 -0.469644 0.386546
v -0.629527 -0.492017 0.482873
v -0.642191 -0.475647 0.492586
v 0.617170 -0.498019 -0.366370
v 0.629585 -0.469644 -0.373740
v 0.629527 -0.492017 -0.482873
v 0.642191 -0.475647 -0.492586
v -0.629527 -0.492017 -0.482873
v -0.617170 -0.498019 -0.366370
v -0.629585 -0.469644 -0.373740
v -0.642191 -0.475647 -0.492586
v -0.331581 0.568466 0.200841
v 0.331581 0.568466 0.200841
v 0.331581 0.568466 -0.190670
v -0.331581 0.568466 -0.190670
vt 0.447190 0.694443
vt 0.456534 0.438031
vt 0.620161 0.438031
vt 0.629195 0.694443
vt 0.404228 0.438031
vt 0.389010 0.694443
vt 0.458174 0.393012
vt 0.618575 0.393012
vt 0.675223 0.438031
vt 0.690441 0.694443
vt 0.391244 0.400352
vt 0.423208 0.402162
vt 0.425506 0.393609
vt 0.650161 0.393609
vt 0.652382 0.402162
vt 0.688206 0.400352
vt 0.394172 0.395418
vt 0.685279 0.395418
vt 0.142689 0.694443
vt 0.151723 0.438031
vt 0.315350 0.438031
vt 0.324694 0.694443
vt 0.096661 0.438031
vt 0.081443 0.694443
vt 0.153310 0.393012
vt 0.313710 0.393012
vt 0.367656 0.438031
vt 0.382874 0.694443
vt 0.083678 0.400352
vt 0.119502 0.402162
vt 0.121723 0.393609
vt 0.346378 0.393609
vt 0.348676 0.402162
vt 0.380640 0.400352
vt 0.086606 0.395418
vt 0.377712 0.395418
vt 0.006748 0.629867
vt 0.018706 0.428387
vt 0.073208 0.431621
vt 0.061250 0.633102
vt 0.020806 0.393012
vt 0.075308 0.396246
vt 0.004092 0.675703
vt 0.058593 0.672469
vt 0.070551 0.873949
vt 0.016050 0.877184
vt 0.056494 0.637093
vt 0.001992 0.640328
vt 0.747343 0.475553
vt 0.947241 0.475553
vt 0.947241 0.593567
vt 0.747343 0.593567
vt 0.696576 0.443558
vt 0.998008 0.443558
vt 0.998008 0.625562
vt 0.696576 0.625562
vt 0.696576 0.385377
vt 0.998008 0.385377
vt 0.998008 0.686809
vt 0.696576 0.686809
vt 0.684760 0.324452
vt 0.684760 0.058801
vt 0.845160 0.058801
vt 0.845160 0.324452
vt 0.630783 0.324452
vt 0.630783 0.058801
vt 0.896434 0.058801
vt 0.896434 0.324452
vt 0.618056 0.001867
vt 0.653174 0.005592
vt 0.653174 0.377661
vt 0.618056 0.381386
vt 0.877829 0.005592
vt 0.909162 0.001867
vt 0.909162 0.381386
vt 0.877829 0.377661
vt 0.321815 0.935290
vt 0.321815 0.698434
vt 0.376317 0.698434
vt 0.376317 0.935290
vt 0.438683 0.698434
vt 0.438683 0.907175
vt 0.384182 0.907175
vt 0.384182 0.698434
vt 0.047012 0.330941
vt 0.047012 0.059946
vt 0.303424 0.044728
vt 0.303424 0.346159
vt 0.001992 0.328269
vt 0.001992 0.062618
vt 0.004398 0.005684
vt 0.009333 0.001867
vt 0.009333 0.389020
vt 0.004398 0.385203
vt 0.078196 0.698434
vt 0.315052 0.698434
vt 0.303094 0.899915
vt 0.090154 0.899915
vt 0.300994 0.935290
vt 0.092254 0.935290
vt 0.310121 0.346159
vt 0.310121 0.044728
vt 0.342409 0.077016
vt 0.342409 0.313871
vt 0.566533 0.059946
vt 0.543890 0.088974
vt 0.543890 0.301913
vt 0.566533 0.330941
vt 0.611553 0.062618
vt 0.579265 0.091073
vt 0.611553 0.328269
vt 0.579265 0.299814
vt 0.604212 0.001867
vt 0.609146 0.005684
vt 0.609146 0.385203
vt 0.604212 0.389020
vn 0.000000 -0.059246 0.998243
vn 0.000000 -0.059246 0.998243
vn 0.000000 -0.059246 0.998243
vn 0.000000 -0.059246 0.998243
vn 0.000000 1.000000 0.000000
vn 0.000000 1.000000 0.000000
vn 0.000000 1.000000 0.000000
vn 0.000000 1.000000 0.000000
vn 0.000000 -0.059246 -0.998243
vn 0.000000 -0.059246 -0.998243
vn 0.000000 -0.059246 -0.998243
vn 0.000000 -0.059246 -0.998243
vn 0.000000 -1.000000 0.000000
vn 0.000000 -1.000000 0.000000
vn 0.000000 -1.000000 0.000000
vn 0.000000 -1.000000 0.000000
vn 0.998243 -0.059246 0.000000
vn 0.998243 -0.059246 0.000000
vn 0.998243 -0.059246 0.000000
vn 0.998243 -0.059246 0.000000
vn -0.998243 -0.059246 0.000000
vn -0.998243 -0.059246 0.000000
vn -0.998243 -0.059246 0.000000
vn -0.998243 -0.059246 0.000000
vn 0.000000 -0.059246 -0.998243
vn 0.000000 -0.059246 -0.998243
vn 0.000000 -0.059246 -0.998243
vn 0.000000 -0.059246 -0.998243
vn 0.000001 -0.059246 -0.998243
vn 0.000001 -0.059246 -0.998243
vn 0.000001 -0.059246 -0.998243
vn 0.000001 -0.059246 -0.998243
vn 0.000000 -0.059247 -0.998243
vn 0.000000 -0.059247 -0.998243
vn 0.000000 -0.059247 -0.998243
vn 0.000000 -0.059247 -0.998243
vn -0.000001 -0.059246 -0.998243
vn -0.000001 -0.059246 -0.998243
vn -0.000001 -0.059246 -0.998243
vn -0.000001 -0.059246 -0.998243
vn 0.000000 -0.998243 0.059247
vn 0.000000 -0.998243 0.059247
vn 0.000000 -0.998243 0.059247
vn 0.000000 -0.998243 0.059247
vn -0.998250 0.059039 -0.003504
vn -0.998250 0.059039 -0.003504
vn -0.998250 0.059039 -0.003504
vn -0.998250 0.059039 -0.003504
vn 0.000000 0.998243 -0.059246
vn 0.000000 0.998243 -0.059246
vn 0.000000 0.998243 -0.059246
vn 0.000000 0.998243 -0.059246
vn 0.998250 0.059039 -0.003504
vn 0.998250 0.059039 -0.003504
vn 0.998250 0.059039 -0.003504
vn 0.998250 0.059039 -0.003504
vn 0.000000 -0.059246 0.998243
vn 0.000000 -0.059246 0.998243
vn 0.998243 -0.059246 0.000000
vn 0.998243 -0.059246 0.000000
vn 0.000000 -0.059246 -0.998243
vn 0.000000 -0.059246 -0.998243
vn -0.998250 0.059039 -0.003504
vn -0.998250 0.059039 -0.003504
vn 0.000000 -0.059246 -0.998243
vn 0.000000 -0.059246 -0.998243
vn 0.998250 0.059039 -0.003504
vn 0.998250 0.059039 -0.003504
vn -0.000000 -0.059246 -0.998243
vn -0.000000 -0.059246 -0.998243
vn -0.998243 -0.059246 0.000000
vn -0.998244 -0.059246 0.000000
vn 0.000000 1.000000 0.000000
vn 0.000000 1.000000 0.000000
vn 0.000000 1.000000 0.000000
vn 0.000000 1.000000 0.000000
vn 0.998243 -0.059246 0.000000
vn 0.998243 -0.059246 0.000000
vn 0.884309 -0.454914 -0.105125
vn 0.884309 -0.454914 -0.105125
vn 0.884309 -0.454914 -0.105125
vn 0.884309 -0.454914 -0.105125
vn 0.000000 -1.000000 0.000000
vn 0.000000 -1.000000 0.000000
vn -0.884308 -0.454915 -0.105125
vn -0.884308 -0.454915 -0.105125
vn -0.884308 -0.454915 -0.105125
vn -0.884308 -0.454915 -0.105125
vn -0.998243 -0.059246 0.000000
vn -0.998243 -0.059246 0.000000
vn 0.000000 -1.000000 0.000000
vn 0.000000 -1.000000 0.000000
vn 0.883316 -0.459319 0.093691
vn 0.883316 -0.459319 0.093691
vn 0.883316 -0.459319 0.093691
vn 0.883316 -0.459319 0.093691
vn 0.998243 -0.059246 0.000000
vn 0.998243 -0.059246 0.000000
vn 0.000000 1.000000 0.000000
vn 0.000000 1.000000 0.000000
vn 0.000000 1.000000 0.000000
vn 0.000000 1.000000 0.000000
vn -0.998243 -0.059246 0.000000
vn -0.998243 -0.059246 0.000000
vn -0.883316 -0.459319 0.093691
vn -0.883316 -0.459319 0.093691
vn -0.883316 -0.459319 0.093691
vn -0.883316 -0.459319 0.093691
vn 0.018582 -0.999606 0.021055
vn 0.018582 -0.999606 0.021055
vn 0.018582 -0.999606 0.021055
vn 0.018582 -0.999606 0.021055
vn 0.523223 -0.000000 -0.852196
vn 0.523223 -0.000000 -0.852196
vn 0.523223 -0.000000 -0.852196
vn 0.523223 -0.000000 -0.852196
vn 0.549646 0.835370 -0.006849
vn 0.549646 0.835370 -0.006849
vn 0.549646 0.835370 -0.006849
vn 0.549646 0.835370 -0.006849
vn -0.240029 -0.077298 0.967683
vn -0.240029 -0.077298 0.967683
vn -0.240029 -0.077298 0.967683
vn -0.240029 -0.077298 0.967683
vn -0.523223 -0.000000 -0.852196
vn -0.523223 -0.000000 -0.852196
vn -0.523223 -0.000000 -0.852196
vn -0.523223 -0.000000 -0.852196
vn -0.018582 -0.999606 0.021055
vn -0.018582 -0.999606 0.021055
vn -0.018582 -0.999606 0.021055
vn -0.018582 -0.999606 0.021055
vn 0.240029 -0.077297 0.967683
vn 0.240029 -0.077297 0.967683
vn 0.240029 -0.077297 0.967683
vn 0.240029 -0.077297 0.967683
vn -0.549646 0.835370 -0.006850
vn -0.549646 0.835370 -0.006850
vn -0.549646 0.835370 -0.006850
vn -0.549646 0.835370 -0.006850
vn 0.510461 0.000000 0.859901
vn 0.510461 0.000000 0.859901
vn 0.510461 0.000000 0.859901
vn 0.510461 0.000000 0.859901
vn 0.019420 -0.999622 -0.019487
vn 0.019420 -0.999622 -0.019487
vn 0.019420 -0.999622 -0.019487
vn 0.019420 -0.999622 -0.019487
vn -0.240029 -0.077298 -0.967683
vn -0.240029 -0.077298 -0.967683
vn -0.240029 -0.077298 -0.967683
vn -0.240029 -0.077298 -0.967683
vn 0.549458 0.835498 0.006340
vn 0.549458 0.835498 0.006340
vn 0.549458 0.835498 0.006340
vn 0.549457 0.835498 0.006340
vn -0.019420 -0.999622 -0.019487
vn -0.019420 -0.999622 -0.019487
vn -0.019420 -0.999622 -0.019487
vn -0.019420 -0.999622 -0.019487
vn -0.510462 0.000000 0.859901
vn -0.510462 0.000000 0.859901
vn -0.510462 0.000000 0.859901
vn -0.510462 0.000000 0.859901
vn -0.549457 0.835498 0.006341
vn -0.549458 0.835498 0.006341
vn -0.549457 0.835498 0.006341
vn -0.549457 0.835498 0.006341
vn 0.240029 -0.077297 -0.967683
vn 0.240029 -0.077297 -0.967683
vn 0.240029 -0.077297 -0.967683
vn 0.240029 -0.077297 -0.967683
vn 0.000000 0.840348 0.542047
vn 0.000000 0.840348 0.542047
vn 0.000000 0.840348 0.542047
vn 0.000000 0.840348 0.542047
vn 0.376592 0.926379 0.000000
vn 0.376592 0.926379 0.000000
vn 0.376592 0.926380 0.000000
vn 0.376592 0.926380 0.000000
vn 0.000000 0.840348 -0.542047
vn 0.000000 0.840348 -0.542047
vn 0.000000 0.840348 -0.542047
vn 0.000000 0.840348 -0.542047
vn -0.376592 0.926379 0.000000
vn -0.376592 0.926379 0.000000
vn -0.376592 0.926380 0.000000
vn -0.376592 0.926380 0.000000
s 1
g pCube1
usemtl initialShadingGroup
f 17/85/1 18/86/2 4/87/3 3/88/4
s off
f 53/49/5 54/50/6 55/51/7 56/52/8
s 2
f 13/95/9 14/96/10 21/97/11 22/98/12
s 3
f 31/61/13 32/62/14 28/63/15 29/64/16
s 4
f 26/1/17 27/2/18 33/3/19 34/4/20
s 5
f 35/19/21 36/20/22 30/21/23 25/22/24
s off
f 5/101/25 6/102/26 10/103/27 9/104/28
s 6
f 6/102/29 19/105/30 20/106/31 10/103/32
s off
f 8/109/33 7/111/34 12/112/35 11/110/36
s 7
f 23/107/37 24/108/38 5/101/39 9/104/40
s off
f 9/77/41 10/78/42 14/79/43 13/80/44
s 8
f 10/37/45 20/38/46 21/39/47 14/40/48
s off
f 11/81/49 12/82/50 16/83/51 15/84/52
s 9
f 22/43/53 23/44/54 9/45/55 13/46/56
s 1
f 1/89/57 2/90/58 18/86/2 17/85/1
s 4
f 27/2/18 28/7/59 32/8/60 33/3/19
s 6
f 20/106/31 19/105/30 8/109/61 11/110/62
s 8
f 21/39/47 20/38/46 11/41/63 15/42/64
s 2
f 22/98/12 21/97/11 15/99/65 16/100/66
s 9
f 12/47/67 23/44/54 22/43/53 16/48/68
s 7
f 7/111/69 24/108/38 23/107/37 12/112/70
s 5
f 36/20/22 31/25/71 29/26/72 30/21/23
s off
f 3/57/73 4/58/74 26/54/75 25/53/76
s 4
f 18/5/77 27/2/18 26/1/17 4/6/78
s off
f 38/17/79 37/13/80 39/12/81 40/11/82
s 3
f 29/64/16 28/63/15 2/67/83 1/68/84
s off
f 42/33/85 41/32/86 43/36/87 44/34/88
s 5
f 25/22/24 30/21/23 17/27/89 3/28/90
s 3
f 7/65/91 8/66/92 32/62/14 31/61/13
s off
f 46/15/93 45/14/94 47/18/95 48/16/96
s 4
f 34/4/20 33/3/19 19/9/97 6/10/98
s off
f 35/56/99 34/55/100 6/59/101 5/60/102
s 5
f 24/23/103 36/20/22 35/19/21 5/24/104
s off
f 49/35/105 50/31/106 51/30/107 52/29/108
f 2/67/109 28/63/110 37/73/111 38/74/112
f 28/7/113 27/2/114 39/12/115 37/13/116
f 27/2/117 18/5/118 40/11/119 39/12/120
f 18/86/121 2/90/122 38/91/123 40/92/124
f 30/21/125 29/26/126 41/32/127 42/33/128
f 29/64/129 1/68/130 43/75/131 41/76/132
f 1/89/133 17/85/134 44/93/135 43/94/136
f 17/27/137 30/21/138 42/33/139 44/34/140
f 33/3/141 32/8/142 45/14/143 46/15/144
f 32/62/145 8/66/146 47/69/147 45/70/148
f 8/109/149 19/105/150 48/113/151 47/114/152
f 19/9/153 33/3/154 46/15/155 48/16/156
f 7/65/157 31/61/158 50/71/159 49/72/160
f 31/25/161 36/20/162 51/30/163 50/31/164
f 36/20/165 24/23/166 52/29/167 51/30/168
f 24/108/169 7/111/170 49/115/171 52/116/172
f 25/53/173 26/54/174 54/50/175 53/49/176
f 26/54/177 34/55/178 55/51/179 54/50/180
f 34/55/181 35/56/182 56/52/183 55/51/184
f 35/56/185 25/53/186 53/49/187 56/52/188
