# This file uses centimeters as units for non-parametric coordinates.

mtllib Muur met Raam.mtl
g default
v -0.690081 0.714781 5.950192
v 0.690081 0.714781 5.950192
v -0.690081 12.615166 5.950192
v 0.690081 12.615166 5.950192
v -0.690081 12.615166 -5.950192
v 0.690081 12.615166 -5.950192
v -0.690081 0.714781 -5.950192
v 0.690081 0.714781 -5.950192
v -0.690081 11.124691 5.950192
v 0.690081 11.124691 5.950192
v 0.690081 11.124691 -5.950192
v -0.690081 11.124691 -5.950192
v -0.690081 9.288310 5.950192
v 0.690081 9.288310 5.950192
v 0.690081 9.288310 -5.950192
v -0.690081 9.288310 -5.950192
v -0.690081 12.615166 -4.899115
v 0.690081 12.615166 -4.899115
v 0.690081 11.124691 -4.899115
v 0.690081 9.288310 -4.899115
v 0.690081 0.714781 -4.899113
v -0.690081 0.714781 -4.899113
v -0.690081 9.288310 -4.899113
v -0.690081 11.124691 -4.899113
v -0.690081 12.615166 4.685750
v 0.690081 12.615166 4.685750
v 0.690081 11.124691 4.685750
v 0.690081 9.288310 4.685750
v 0.690081 0.714781 4.685750
v -0.690081 0.714781 4.685750
v -0.690081 9.288310 4.685750
v -0.690081 11.124691 4.685750
vt 0.375000 0.000000
vt 0.625000 0.000000
vt 0.375000 0.250000
vt 0.625000 0.250000
vt 0.375000 0.500000
vt 0.625000 0.500000
vt 0.375000 0.750000
vt 0.625000 0.750000
vt 0.375000 1.000000
vt 0.625000 1.000000
vt 0.875000 0.000000
vt 0.875000 0.250000
vt 0.125000 0.000000
vt 0.125000 0.250000
vt 0.375000 0.218689
vt 0.625000 0.218689
vt 0.625000 0.531312
vt 0.875000 0.218689
vt 0.125000 0.218689
vt 0.375000 0.531312
vt 0.375000 0.180110
vt 0.625000 0.180110
vt 0.625000 0.569890
vt 0.875000 0.180110
vt 0.125000 0.180110
vt 0.375000 0.569890
vt 0.147081 0.250000
vt 0.375000 0.477919
vt 0.625000 0.477919
vt 0.852919 0.250000
vt 0.852919 0.218689
vt 0.852919 0.180110
vt 0.625000 0.772081
vt 0.852919 0.000000
vt 0.147081 0.000000
vt 0.375000 0.772081
vt 0.147081 0.180110
vt 0.147081 0.218689
vt 0.348437 0.250000
vt 0.375000 0.276563
vt 0.625000 0.276563
vt 0.651563 0.250000
vt 0.651563 0.218689
vt 0.651563 0.180110
vt 0.625000 0.973437
vt 0.651563 0.000000
vt 0.348437 0.000000
vt 0.375000 0.973437
vt 0.348437 0.180110
vt 0.348437 0.218689
vn 0.000000 0.000000 1.000000
vn 0.000000 0.000000 1.000000
vn 0.000000 0.000000 1.000000
vn 0.000000 0.000000 1.000000
vn 0.000000 1.000000 0.000000
vn 0.000000 1.000000 0.000000
vn 0.000000 1.000000 0.000000
vn 0.000000 1.000000 0.000000
vn 0.000000 0.000000 -1.000000
vn 0.000000 0.000000 -1.000000
vn 0.000000 0.000000 -1.000000
vn 0.000000 0.000000 -1.000000
vn 0.000000 -1.000000 0.000000
vn 0.000000 -1.000000 0.000000
vn 0.000000 -1.000000 0.000000
vn 0.000000 -1.000000 0.000000
vn 1.000000 0.000000 0.000000
vn 1.000000 0.000000 0.000000
vn 1.000000 0.000000 0.000000
vn 1.000000 0.000000 0.000000
vn -1.000000 0.000000 0.000000
vn -1.000000 0.000000 0.000000
vn -1.000000 0.000000 0.000000
vn -1.000000 0.000000 0.000000
vn 0.000000 0.000000 1.000000
vn 0.000000 0.000000 1.000000
vn 1.000000 0.000000 0.000000
vn 1.000000 0.000000 0.000000
vn 0.000000 0.000000 -1.000000
vn 0.000000 0.000000 -1.000000
vn -1.000000 0.000000 0.000000
vn -1.000000 0.000000 0.000000
vn 0.000000 0.000000 1.000000
vn 0.000000 0.000000 1.000000
vn 1.000000 0.000000 0.000000
vn 1.000000 0.000000 0.000000
vn 0.000000 0.000000 -1.000000
vn 0.000000 0.000000 -1.000000
vn -1.000000 0.000000 0.000000
vn -1.000000 0.000000 0.000000
vn 0.000000 1.000000 0.000000
vn 0.000000 1.000000 0.000000
vn 1.000000 0.000000 0.000000
vn 1.000000 0.000000 0.000000
vn 1.000000 0.000000 0.000000
vn 1.000000 0.000000 0.000000
vn 0.000000 -1.000000 0.000000
vn 0.000000 -1.000000 0.000000
vn -1.000000 0.000000 0.000000
vn -1.000000 0.000000 0.000000
vn -1.000000 0.000000 0.000000
vn -1.000000 0.000000 0.000000
vn 0.000000 1.000000 0.000000
vn 0.000000 1.000000 0.000000
vn 1.000000 0.000000 0.000000
vn 1.000000 0.000000 0.000000
vn 1.000000 0.000000 0.000000
vn 1.000000 0.000000 0.000000
vn 0.000000 -1.000000 0.000000
vn 0.000000 -1.000000 0.000000
vn -1.000000 0.000000 0.000000
vn -1.000000 0.000000 0.000000
vn -1.000000 0.000000 0.000000
vn -1.000000 0.000000 0.000000
vn 0.000000 -1.000000 0.000000
vn 0.000000 -1.000000 0.000000
vn 0.000000 -1.000000 0.000000
vn 0.000000 -1.000000 0.000000
vn 0.000000 1.000000 0.000000
vn 0.000000 1.000000 0.000000
vn 0.000000 1.000000 0.000000
vn 0.000000 1.000000 0.000000
vn 0.000000 0.000000 -1.000000
vn 0.000000 0.000000 -1.000000
vn 0.000000 0.000000 -1.000000
vn 0.000000 0.000000 -1.000000
vn 0.000001 0.000000 1.000000
vn 0.000001 0.000000 1.000000
vn 0.000001 0.000000 1.000000
vn 0.000001 0.000000 1.000000
s 1
g pCube1
usemtl lambert2SG
f 9/15/1 10/16/2 4/4/3 3/3/4
s 2
f 17/28/5 18/29/6 6/6/7 5/5/8
s 3
f 5/5/9 6/6/10 11/17/11 12/20/12
s 4
f 7/7/13 8/8/14 21/33/15 22/36/16
s 5
f 18/30/17 19/31/18 11/18/19 6/12/20
s 6
f 12/19/21 24/38/22 17/27/23 5/14/24
s 1
f 13/21/25 14/22/26 10/16/2 9/15/1
s 5
f 19/31/18 20/32/27 15/24/28 11/18/19
s 3
f 12/20/12 11/17/11 15/23/29 16/26/30
s 6
f 16/25/31 23/37/32 24/38/22 12/19/21
s 1
f 1/1/33 2/2/34 14/22/26 13/21/25
s 5
f 20/32/27 21/34/35 8/11/36 15/24/28
s 3
f 16/26/30 15/23/29 8/8/37 7/7/38
s 6
f 7/13/39 22/35/40 23/37/32 16/25/31
s 2
f 25/40/41 26/41/42 18/29/6 17/28/5
s 5
f 26/42/43 27/43/44 19/31/18 18/30/17
f 28/44/45 29/46/46 21/34/35 20/32/27
s 4
f 22/36/16 21/33/15 29/45/47 30/48/48
s 6
f 23/37/32 22/35/40 30/47/49 31/49/50
f 17/27/23 24/38/22 32/50/51 25/39/52
s 2
f 3/3/53 4/4/54 26/41/42 25/40/41
s 5
f 10/16/55 27/43/44 26/42/43 4/4/56
f 14/22/57 28/44/45 27/43/44 10/16/55
f 2/2/58 29/46/46 28/44/45 14/22/57
s 4
f 30/48/48 29/45/47 2/10/59 1/9/60
s 6
f 31/49/50 30/47/49 1/1/61 13/21/62
f 32/50/51 31/49/50 13/21/62 9/15/63
f 25/39/52 32/50/51 9/15/63 3/3/64
s off
f 32/50/65 24/38/66 19/31/67 27/43/68
f 23/37/69 31/49/70 28/44/71 20/32/72
f 27/43/73 28/44/74 31/49/75 32/50/76
f 20/32/77 19/31/78 24/38/79 23/37/80
