# This file uses centimeters as units for non-parametric coordinates.

mtllib buton_extra.mtl
g default
v -1.500000 -1.500000 1.500000
v 1.500000 -1.500000 1.500000
v -1.500000 1.500000 1.500000
v 1.500000 1.500000 1.500000
v -1.500000 1.500000 -1.500000
v 1.500000 1.500000 -1.500000
v -1.500000 -1.500000 -1.500000
v 1.500000 -1.500000 -1.500000
v -1.400554 3.403227 1.500000
v 1.400554 2.329074 1.500000
v 1.400554 2.329074 -1.500000
v -1.400553 3.403226 -1.500000
vt 0.686911 0.514270
vt 0.998008 0.514270
vt 0.998008 0.825367
vt 0.686911 0.825367
vt 0.998008 0.911341
vt 0.686911 0.911341
vt 0.637545 0.001819
vt 0.948642 0.001819
vt 0.948642 0.312916
vt 0.637545 0.312916
vt 0.948642 0.510279
vt 0.637545 0.510278
vt 0.390304 0.514270
vt 0.680776 0.514270
vt 0.680776 0.825367
vt 0.390304 0.825367
vt 0.073072 0.514270
vt 0.384168 0.514270
vt 0.384168 0.825367
vt 0.073072 0.825367
vt 0.001992 0.001819
vt 0.313089 0.001819
vt 0.313089 0.312916
vt 0.001992 0.312916
vt 0.302776 0.398890
vt 0.012304 0.510279
vt 0.319866 0.199182
vt 0.630963 0.199182
vt 0.630963 0.510279
vt 0.319866 0.510279
vt 0.330179 0.001819
vt 0.620651 0.113207
vn 0.000000 0.000000 1.000000
vn 0.000000 0.000000 1.000000
vn 0.000000 0.000000 1.000000
vn 0.000000 0.000000 1.000000
vn 0.358051 0.933702 -0.000000
vn 0.358051 0.933702 -0.000000
vn 0.358051 0.933702 -0.000000
vn 0.358051 0.933702 -0.000000
vn 0.000000 0.000000 -1.000000
vn 0.000000 0.000000 -1.000000
vn 0.000000 0.000000 -1.000000
vn 0.000000 0.000000 -1.000000
vn 0.000000 -1.000000 0.000000
vn 0.000000 -1.000000 0.000000
vn 0.000000 -1.000000 0.000000
vn 0.000000 -1.000000 0.000000
vn 1.000000 0.000000 0.000000
vn 1.000000 0.000000 0.000000
vn 0.999663 0.025963 0.000000
vn 0.999663 0.025963 0.000000
vn -1.000000 0.000000 0.000000
vn -1.000000 0.000000 0.000000
vn -0.999794 0.020278 -0.000000
vn -0.999794 0.020278 -0.000000
vn 0.000000 0.000000 1.000000
vn 0.000000 0.000000 1.000000
vn 0.992883 0.119095 0.000000
vn 0.992883 0.119095 0.000000
vn 0.000000 0.000000 -1.000000
vn 0.000000 0.000000 -1.000000
vn -0.998638 0.052181 -0.000000
vn -0.998638 0.052181 -0.000000
s 1
g pCube1
usemtl initialShadingGroup
f 1/21/1 2/22/2 4/23/3 3/24/4
s off
f 9/13/5 10/14/6 11/15/7 12/16/8
s 2
f 5/27/9 6/28/10 8/29/11 7/30/12
s off
f 7/17/13 8/18/14 2/19/15 1/20/16
s 3
f 2/1/17 8/2/18 6/3/19 4/4/20
s 4
f 7/7/21 1/8/22 3/9/23 5/10/24
s 1
f 3/24/4 4/23/3 10/25/25 9/26/26
s 3
f 4/4/20 6/3/19 11/5/27 10/6/28
s 2
f 6/28/10 5/27/9 12/31/29 11/32/30
s 4
f 5/10/24 3/9/23 9/11/31 12/12/32
