# This file uses centimeters as units for non-parametric coordinates.

mtllib kube_sleutle.mtl
g default
v -0.652557 -0.500000 0.637961
v -0.250000 -0.500000 0.500000
v 0.000000 -0.500000 0.500000
v 0.250000 -0.500000 0.514285
v 0.647130 -0.500000 0.635789
v -0.500000 -0.216595 0.500000
v -0.250000 -0.216595 0.500000
v 0.000000 -0.216595 0.500000
v 0.250000 -0.216595 0.500000
v 0.500000 -0.216595 0.500000
v -0.500000 0.500000 0.500000
v -0.250000 0.500000 0.500000
v 0.000000 0.500000 0.500000
v 0.250000 0.500000 0.500000
v 0.500000 0.500000 0.500000
v -0.500000 0.500000 0.250000
v 0.500000 0.500000 0.250000
v -0.500000 0.500000 0.000000
v 0.500000 0.500000 0.000000
v -0.500000 0.500000 -0.250000
v 0.500000 0.500000 -0.250000
v -0.500000 0.500000 -0.500000
v -0.250000 0.500000 -0.500000
v 0.000000 0.500000 -0.500000
v 0.250000 0.500000 -0.500000
v 0.500000 0.500000 -0.500000
v -0.500000 -0.216595 -0.500000
v -0.250000 -0.216595 -0.500000
v 0.000000 -0.216595 -0.500000
v 0.250000 -0.216595 -0.500000
v 0.500000 -0.216595 -0.500000
v -0.637794 -0.500000 -0.635358
v -0.250000 -0.500000 -0.500000
v 0.000000 -0.500000 -0.500000
v 0.250000 -0.500000 -0.500000
v 0.642917 -0.500000 -0.637961
v -0.500000 -0.500000 -0.250000
v -0.250000 -0.500000 -0.250000
v 0.000000 -0.500000 -0.250000
v 0.250000 -0.500000 -0.250000
v 0.500000 -0.500000 -0.250000
v -0.500000 -0.500000 0.000000
v -0.250000 -0.500000 0.000000
v 0.000000 -0.500000 0.000000
v 0.250000 -0.500000 0.000000
v 0.500000 -0.500000 0.000000
v -0.500000 -0.500000 0.250000
v -0.250000 -0.500000 0.250000
v 0.000000 -0.500000 0.250000
v 0.250000 -0.500000 0.250000
v 0.500000 -0.500000 0.250000
v 0.500000 -0.216595 -0.250000
v 0.500000 -0.216595 0.000000
v 0.500000 -0.216595 0.250000
v -0.500000 -0.216595 -0.250000
v -0.500000 -0.216595 0.000000
v -0.500000 -0.216595 0.250000
vt 0.351629 0.472645
vt 0.351629 0.365287
vt 0.430053 0.403464
vt 0.430053 0.472645
vt 0.628351 0.403464
vt 0.628351 0.472645
vt 0.351629 0.541825
vt 0.430053 0.541825
vt 0.628351 0.541825
vt 0.351629 0.611006
vt 0.430053 0.611006
vt 0.628351 0.611006
vt 0.351629 0.717762
vt 0.430053 0.680187
vt 0.628351 0.680187
vt 0.069308 0.717643
vt 0.069308 0.611006
vt 0.147732 0.611006
vt 0.147732 0.680187
vt 0.069308 0.541825
vt 0.147732 0.541825
vt 0.346030 0.611006
vt 0.346030 0.680187
vt 0.069308 0.472645
vt 0.147732 0.472645
vt 0.346030 0.541825
vt 0.069308 0.365287
vt 0.147732 0.403464
vt 0.346030 0.472645
vt 0.346030 0.403464
vt 0.285481 0.357560
vt 0.322938 0.250248
vt 0.392119 0.250248
vt 0.392119 0.319429
vt 0.322938 0.181068
vt 0.392119 0.181068
vt 0.461299 0.250248
vt 0.461299 0.319429
vt 0.322938 0.111887
vt 0.392119 0.111887
vt 0.461299 0.181068
vt 0.530480 0.250248
vt 0.530480 0.319429
vt 0.284761 0.003158
vt 0.392119 0.042706
vt 0.461299 0.111887
vt 0.530480 0.181068
vt 0.599661 0.250248
vt 0.637838 0.361645
vt 0.461299 0.042706
vt 0.530480 0.111887
vt 0.599661 0.181068
vt 0.530480 0.042706
vt 0.603614 0.111887
vt 0.637236 0.001992
vt 0.070998 0.721285
vt 0.140179 0.721285
vt 0.209360 0.721285
vt 0.278540 0.721285
vt 0.278540 0.790466
vt 0.278540 0.859647
vt 0.278540 0.928827
vt 0.278540 0.998008
vt 0.209360 0.998008
vt 0.140179 0.998008
vt 0.070998 0.998008
vt 0.001818 0.998008
vt 0.001818 0.928827
vt 0.001818 0.859647
vt 0.001818 0.790466
vt 0.001818 0.721285
vt 0.001818 0.361645
vt 0.001818 0.250248
vt 0.080242 0.250248
vt 0.080242 0.319429
vt 0.001818 0.181068
vt 0.080242 0.181068
vt 0.278540 0.250248
vt 0.278540 0.319429
vt 0.001818 0.111887
vt 0.080242 0.111887
vt 0.278540 0.181068
vt 0.001818 0.001992
vt 0.080242 0.042706
vt 0.278540 0.111887
vt 0.278540 0.042706
vt 0.633950 0.681558
vt 0.633950 0.612378
vt 0.832248 0.612378
vt 0.832248 0.681558
vt 0.633950 0.543197
vt 0.832248 0.543197
vt 0.910672 0.612378
vt 0.910672 0.719689
vt 0.633950 0.474016
vt 0.832248 0.474016
vt 0.910672 0.543197
vt 0.633950 0.404836
vt 0.832248 0.404836
vt 0.910672 0.474016
vt 0.910672 0.365287
vn 0.203484 0.179500 0.962483
vn 0.118204 0.104271 0.987500
vn 0.037432 0.033020 0.998754
vn 0.083855 0.073971 0.993729
vn -0.014283 0.012599 0.999819
vn -0.004048 0.003571 0.999986
vn -0.116958 0.131301 0.984419
vn -0.036886 0.041399 0.998462
vn -0.180509 0.207693 0.961395
vn -0.073806 0.084921 0.993650
vn 0.000000 0.000000 1.000000
vn 0.000000 0.000000 1.000000
vn 0.000000 0.000000 1.000000
vn 0.000000 0.000000 1.000000
vn 0.000000 0.000000 1.000000
vn 0.000000 0.000000 -1.000000
vn 0.000000 0.000000 -1.000000
vn 0.036875 0.032528 -0.998790
vn 0.082108 0.072430 -0.993988
vn 0.000000 0.000000 -1.000000
vn 0.000000 0.000000 -1.000000
vn 0.000000 0.000000 -1.000000
vn -0.037530 0.033106 -0.998747
vn 0.000000 0.000000 -1.000000
vn -0.083719 0.073851 -0.993749
vn 0.117496 0.103647 -0.987650
vn 0.204209 0.180139 -0.962210
vn 0.000000 0.000000 -1.000000
vn -0.119176 0.105128 -0.987292
vn -0.206306 0.181989 -0.961415
vn 0.000000 -1.000000 0.000000
vn 0.000000 -1.000000 0.000000
vn 0.000000 -1.000000 0.000000
vn 0.000000 -1.000000 0.000000
vn 0.000000 -1.000000 0.000000
vn 0.000000 -1.000000 0.000000
vn 0.000000 -1.000000 0.000000
vn 0.000000 -1.000000 0.000000
vn 0.000000 -1.000000 0.000000
vn 0.000000 -1.000000 0.000000
vn 0.000000 -1.000000 0.000000
vn 0.000000 -1.000000 0.000000
vn 0.000000 -1.000000 0.000000
vn 0.000000 -1.000000 0.000000
vn 0.000000 -1.000000 0.000000
vn 0.000000 -1.000000 0.000000
vn 0.000000 -1.000000 0.000000
vn 0.000000 -1.000000 0.000000
vn 0.000000 -1.000000 0.000000
vn 0.000000 -1.000000 0.000000
vn 0.000000 -1.000000 0.000000
vn 0.000000 -1.000000 0.000000
vn 0.000000 -1.000000 0.000000
vn 0.000000 -1.000000 0.000000
vn 0.000000 -1.000000 0.000000
vn 0.986265 0.109266 0.123866
vn 0.958161 0.189349 0.214649
vn 0.993320 0.076335 0.086535
vn 0.998652 0.034339 0.038927
vn 1.000000 0.000000 0.000000
vn 1.000000 0.000000 0.000000
vn 0.985406 0.112604 -0.127650
vn 0.998570 0.035369 -0.040095
vn 0.955539 0.195061 -0.221125
vn 0.992941 0.078466 -0.088951
vn 1.000000 0.000000 0.000000
vn 1.000000 0.000000 0.000000
vn 1.000000 0.000000 0.000000
vn 1.000000 0.000000 0.000000
vn 1.000000 0.000000 0.000000
vn -0.960635 0.183782 0.208338
vn -0.987156 0.105685 0.119807
vn -0.998745 0.033134 0.037561
vn -0.993783 0.073651 0.083492
vn -1.000000 0.000000 0.000000
vn -1.000000 0.000000 0.000000
vn -0.984394 0.116415 -0.131970
vn -0.998464 0.036648 -0.041545
vn -0.952734 0.200976 -0.227830
vn -0.992423 0.081283 -0.092144
vn -1.000000 0.000000 0.000000
vn -1.000000 0.000000 0.000000
vn -1.000000 0.000000 0.000000
vn -1.000000 0.000000 0.000000
vn -1.000000 0.000000 0.000000
vn 0.000000 1.000000 0.000000
vn 0.000000 1.000000 0.000000
vn 0.000000 1.000000 0.000000
vn 0.000000 1.000000 0.000000
vn 0.000000 1.000000 0.000000
vn 0.000000 1.000000 0.000000
vn 0.000000 1.000000 0.000000
vn 0.000000 1.000000 0.000000
vn 0.000000 1.000000 0.000000
vn 0.000000 1.000000 0.000000
vn 0.000000 1.000000 0.000000
vn 0.000000 1.000000 0.000000
vn 0.000000 1.000000 0.000000
vn 0.000000 1.000000 0.000000
vn 0.000000 1.000000 0.000000
vn 0.000000 1.000000 0.000000
s 1
g pCube3
usemtl initialShadingGroup
f 1/72/1 2/73/2 7/74/3 6/75/4
f 2/73/2 3/76/5 8/77/6 7/74/3
f 3/76/5 4/80/7 9/81/8 8/77/6
f 4/80/7 5/83/9 10/84/10 9/81/8
f 6/75/4 7/74/3 12/78/11 11/79/12
f 7/74/3 8/77/6 13/82/13 12/78/11
f 8/77/6 9/81/8 14/85/14 13/82/13
f 9/81/8 10/84/10 15/86/15 14/85/14
s 2
f 22/87/16 23/88/17 28/89/18 27/90/19
f 23/88/17 24/91/20 29/92/21 28/89/18
f 24/91/20 25/95/22 30/96/23 29/92/21
f 25/95/22 26/98/24 31/99/25 30/96/23
f 27/90/19 28/89/18 33/93/26 32/94/27
f 28/89/18 29/92/21 34/97/28 33/93/26
f 29/92/21 30/96/23 35/100/29 34/97/28
f 30/96/23 31/99/25 36/101/30 35/100/29
s 3
f 32/31/31 33/32/32 38/33/33 37/34/34
f 33/32/32 34/35/35 39/36/36 38/33/33
f 34/35/35 35/39/37 40/40/38 39/36/36
f 35/39/37 36/44/39 41/45/40 40/40/38
f 37/34/34 38/33/33 43/37/41 42/38/42
f 38/33/33 39/36/36 44/41/43 43/37/41
f 39/36/36 40/40/38 45/46/44 44/41/43
f 40/40/38 41/45/40 46/50/45 45/46/44
f 42/38/42 43/37/41 48/42/46 47/43/47
f 43/37/41 44/41/43 49/47/48 48/42/46
f 44/41/43 45/46/44 50/51/49 49/47/48
f 45/46/44 46/50/45 51/53/50 50/51/49
f 47/43/47 48/42/46 2/48/51 1/49/52
f 48/42/46 49/47/48 3/52/53 2/48/51
f 49/47/48 50/51/49 4/54/54 3/52/53
f 50/51/49 51/53/50 5/55/55 4/54/54
s 4
f 41/1/56 36/2/57 31/3/58 52/4/59
f 46/7/60 41/1/56 52/4/59 53/8/61
f 51/10/62 46/7/60 53/8/61 54/11/63
f 5/13/64 51/10/62 54/11/63 10/14/65
f 52/4/59 31/3/58 26/5/66 21/6/67
f 53/8/61 52/4/59 21/6/67 19/9/68
f 54/11/63 53/8/61 19/9/68 17/12/69
f 10/14/65 54/11/63 17/12/69 15/15/70
s 5
f 32/16/71 37/17/72 55/18/73 27/19/74
f 37/17/72 42/20/75 56/21/76 55/18/73
f 42/20/75 47/24/77 57/25/78 56/21/76
f 47/24/77 1/27/79 6/28/80 57/25/78
f 27/19/74 55/18/73 20/22/81 22/23/82
f 55/18/73 56/21/76 18/26/83 20/22/81
f 56/21/76 57/25/78 16/29/84 18/26/83
f 57/25/78 6/28/80 11/30/85 16/29/84
s off
f 12/56/86 13/57/87 14/58/88 15/59/89 17/60/90 19/61/91 21/62/92 26/63/93 25/64/94 24/65/95 23/66/96 22/67/97 20/68/98 18/69/99 16/70/100 11/71/101
g default
v -0.244647 -0.223092 0.550569
v 0.255353 -0.223092 0.550569
v -0.244647 0.276908 0.550569
v 0.255353 0.276908 0.550569
v -0.244647 0.276908 -0.549431
v 0.255353 0.276908 -0.549431
v -0.244647 -0.223092 -0.549431
v 0.255353 -0.223092 -0.549431
vt 0.375000 0.000000
vt 0.625000 0.000000
vt 0.375000 0.250000
vt 0.625000 0.250000
vt 0.375000 0.500000
vt 0.625000 0.500000
vt 0.375000 0.750000
vt 0.625000 0.750000
vt 0.375000 1.000000
vt 0.625000 1.000000
vt 0.875000 0.000000
vt 0.875000 0.250000
vt 0.125000 0.000000
vt 0.125000 0.250000
vn 0.000000 0.000000 1.000000
vn 0.000000 0.000000 1.000000
vn 0.000000 0.000000 1.000000
vn 0.000000 0.000000 1.000000
vn 0.000000 1.000000 0.000000
vn 0.000000 1.000000 0.000000
vn 0.000000 1.000000 0.000000
vn 0.000000 1.000000 0.000000
vn 0.000000 0.000000 -1.000000
vn 0.000000 0.000000 -1.000000
vn 0.000000 0.000000 -1.000000
vn 0.000000 0.000000 -1.000000
vn 0.000000 -1.000000 0.000000
vn 0.000000 -1.000000 0.000000
vn 0.000000 -1.000000 0.000000
vn 0.000000 -1.000000 0.000000
vn 1.000000 0.000000 0.000000
vn 1.000000 0.000000 0.000000
vn 1.000000 0.000000 0.000000
vn 1.000000 0.000000 0.000000
vn -1.000000 0.000000 0.000000
vn -1.000000 0.000000 0.000000
vn -1.000000 0.000000 0.000000
vn -1.000000 0.000000 0.000000
s off
g pCube4
usemtl initialShadingGroup
f 58/102/102 59/103/103 61/105/104 60/104/105
f 60/104/106 61/105/107 63/107/108 62/106/109
f 62/106/110 63/107/111 65/109/112 64/108/113
f 64/108/114 65/109/115 59/111/116 58/110/117
f 59/103/118 65/112/119 63/113/120 61/105/121
f 64/114/122 58/102/123 60/104/124 62/115/125
g default
v 0.555353 -0.223092 0.250569
v 0.555353 -0.223092 -0.249431
v 0.555353 0.276908 0.250569
v 0.555353 0.276908 -0.249431
v -0.544647 0.276908 0.250569
v -0.544647 0.276908 -0.249431
v -0.544647 -0.223092 0.250569
v -0.544647 -0.223092 -0.249431
vt 0.375000 0.000000
vt 0.625000 0.000000
vt 0.375000 0.250000
vt 0.625000 0.250000
vt 0.375000 0.500000
vt 0.625000 0.500000
vt 0.375000 0.750000
vt 0.625000 0.750000
vt 0.375000 1.000000
vt 0.625000 1.000000
vt 0.875000 0.000000
vt 0.875000 0.250000
vt 0.125000 0.000000
vt 0.125000 0.250000
vn 1.000000 0.000000 0.000000
vn 1.000000 0.000000 0.000000
vn 1.000000 0.000000 0.000000
vn 1.000000 0.000000 0.000000
vn 0.000000 1.000000 0.000000
vn 0.000000 1.000000 0.000000
vn 0.000000 1.000000 0.000000
vn 0.000000 1.000000 0.000000
vn -1.000000 0.000000 -0.000000
vn -1.000000 0.000000 -0.000000
vn -1.000000 0.000000 -0.000000
vn -1.000000 0.000000 -0.000000
vn 0.000000 -1.000000 0.000000
vn 0.000000 -1.000000 0.000000
vn 0.000000 -1.000000 0.000000
vn 0.000000 -1.000000 0.000000
vn 0.000000 0.000000 -1.000000
vn 0.000000 0.000000 -1.000000
vn 0.000000 0.000000 -1.000000
vn 0.000000 0.000000 -1.000000
vn -0.000000 0.000000 1.000000
vn -0.000000 0.000000 1.000000
vn -0.000000 0.000000 1.000000
vn -0.000000 0.000000 1.000000
s off
g pCube5
usemtl initialShadingGroup
f 66/116/126 67/117/127 69/119/128 68/118/129
f 68/118/130 69/119/131 71/121/132 70/120/133
f 70/120/134 71/121/135 73/123/136 72/122/137
f 72/122/138 73/123/139 67/125/140 66/124/141
f 67/117/142 73/126/143 71/127/144 69/119/145
f 72/128/146 66/116/147 68/118/148 70/129/149
g default
v -0.244647 -0.420822 -0.249431
v 0.255353 -0.420822 -0.249431
v -0.244647 -0.420822 0.250569
v 0.255353 -0.420822 0.250569
v -0.244647 0.551616 0.250569
v 0.255353 0.551616 0.250569
v -0.244647 0.551616 -0.249431
v 0.255353 0.551616 -0.249431
vt 0.375000 0.000000
vt 0.625000 0.000000
vt 0.375000 0.250000
vt 0.625000 0.250000
vt 0.375000 0.500000
vt 0.625000 0.500000
vt 0.375000 0.750000
vt 0.625000 0.750000
vt 0.375000 1.000000
vt 0.625000 1.000000
vt 0.875000 0.000000
vt 0.875000 0.250000
vt 0.125000 0.000000
vt 0.125000 0.250000
vn 0.000000 -1.000000 0.000000
vn 0.000000 -1.000000 0.000000
vn 0.000000 -1.000000 0.000000
vn 0.000000 -1.000000 0.000000
vn 0.000000 0.000000 1.000000
vn 0.000000 0.000000 1.000000
vn 0.000000 0.000000 1.000000
vn 0.000000 0.000000 1.000000
vn 0.000000 1.000000 -0.000000
vn 0.000000 1.000000 -0.000000
vn 0.000000 1.000000 -0.000000
vn 0.000000 1.000000 -0.000000
vn 0.000000 -0.000000 -1.000000
vn 0.000000 -0.000000 -1.000000
vn 0.000000 -0.000000 -1.000000
vn 0.000000 -0.000000 -1.000000
vn 1.000000 0.000000 0.000000
vn 1.000000 0.000000 0.000000
vn 1.000000 0.000000 0.000000
vn 1.000000 0.000000 0.000000
vn -1.000000 0.000000 0.000000
vn -1.000000 0.000000 0.000000
vn -1.000000 0.000000 0.000000
vn -1.000000 0.000000 0.000000
s off
g pCube6
usemtl initialShadingGroup
f 74/130/150 75/131/151 77/133/152 76/132/153
f 76/132/154 77/133/155 79/135/156 78/134/157
f 78/134/158 79/135/159 81/137/160 80/136/161
f 80/136/162 81/137/163 75/139/164 74/138/165
f 75/131/166 81/140/167 79/141/168 77/133/169
f 80/142/170 74/130/171 76/132/172 78/143/173
