# This file uses centimeters as units for non-parametric coordinates.

mtllib muur deur.mtl
g default
v -50.014240 3.933863 -0.449858
v -50.014240 3.933863 -0.743647
v -50.014240 6.871756 -0.449858
v -50.014240 6.871756 -0.743647
v -50.308034 6.871756 -0.449857
v -50.308034 6.871756 -0.743647
v -50.308034 3.933862 -0.449857
v -50.308034 3.933862 -0.743647
v -50.014240 6.916833 -0.449565
v -50.014240 7.134910 -0.696099
v -50.308034 7.134910 -0.696098
v -50.308034 6.916833 -0.449565
v -50.014240 9.359552 1.455398
v -50.014240 9.582246 1.263774
v -50.308034 9.582247 1.263774
v -50.308034 9.359552 1.455398
vt 0.611787 0.071851
vt 0.469129 0.073634
vt 0.640621 0.050515
vt 0.530868 0.073634
vt 0.322465 0.160934
vt 0.530868 0.475670
vt 0.375000 0.734335
vt 0.625000 0.734335
vt 0.375000 0.984335
vt 0.625000 0.984335
vt 0.469129 0.475670
vt 0.530867 0.513571
vt 0.355633 0.160934
vt 0.355633 0.518492
vt 0.871528 0.316937
vt 0.469129 0.513571
vt 0.530867 0.926366
vt 0.322465 0.518492
vt 0.375000 0.250000
vt 0.625000 0.250000
vt 0.625000 0.500000
vt 0.375000 0.500000
vt 0.080967 0.644571
vt 0.051508 0.625151
vt 0.287419 0.382658
vt 0.316878 0.402077
vt 0.077376 0.648311
vt 0.035145 0.650015
vt 0.072241 0.975850
vt 0.035145 0.981565
vt 0.355633 0.523986
vt 0.322465 0.523986
vt 0.355633 0.872947
vt 0.322465 0.872947
vt 0.842695 0.338272
vt 0.887545 0.344253
vt 0.846209 0.342381
vt 0.887545 0.708518
vt 0.851235 0.702239
vt 0.469129 0.926366
vn 1.000000 0.000000 0.000000
vn 1.000000 0.000000 0.000000
vn 1.000000 0.000000 0.000000
vn 1.000000 0.000000 0.000000
vn 0.000001 0.652249 0.758005
vn 0.000001 0.652249 0.758005
vn 0.000001 0.652249 0.758005
vn 0.000001 0.652249 0.758005
vn -1.000000 0.000000 -0.000000
vn -1.000000 0.000000 -0.000000
vn -1.000000 0.000000 -0.000000
vn -1.000000 0.000000 -0.000000
vn 0.000002 -1.000000 0.000000
vn 0.000002 -1.000000 0.000000
vn 0.000002 -1.000000 0.000000
vn 0.000002 -1.000000 0.000000
vn 0.000000 0.000000 -1.000000
vn 0.000000 0.000000 -1.000000
vn 0.000000 0.000000 -1.000000
vn 0.000000 0.000000 -1.000000
vn 0.000000 0.000000 1.000000
vn 0.000000 0.000000 1.000000
vn 0.000000 0.000000 1.000000
vn 0.000000 0.000000 1.000000
vn 1.000000 0.000000 0.000000
vn 1.000000 0.000000 0.000000
vn 1.000000 0.000000 0.000000
vn 1.000000 0.000000 0.000000
vn -0.000000 0.177807 -0.984065
vn -0.000000 0.177807 -0.984065
vn 0.000001 0.595161 -0.803607
vn 0.000001 0.595161 -0.803607
vn -1.000000 0.000000 0.000000
vn -1.000000 0.000000 0.000000
vn -1.000000 0.000000 0.000000
vn -1.000000 0.000000 0.000000
vn 0.000001 -0.006486 0.999979
vn 0.000001 -0.006486 0.999979
vn 0.000001 -0.006486 0.999979
vn 0.000001 -0.006486 0.999979
vn 1.000000 0.000000 0.000000
vn 1.000000 0.000000 0.000000
vn 0.000001 0.625084 -0.780557
vn 0.000001 0.625085 -0.780557
vn -1.000000 0.000000 0.000000
vn -1.000000 0.000000 0.000000
vn -0.000000 -0.614960 0.788558
vn -0.000000 -0.614960 0.788558
vn -0.000000 -0.614960 0.788558
vn -0.000000 -0.614960 0.788558
s off
g pCube2 group3 group4
usemtl lambert4SG
f 1/1/1 2/3/2 4/15/3 3/35/4
f 13/19/5 14/20/6 15/21/7 16/22/8
f 5/23/9 6/24/10 8/25/11 7/26/12
f 7/7/13 8/8/14 2/10/15 1/9/16
f 2/2/17 8/4/18 6/6/19 4/11/20
f 7/5/21 1/13/22 3/14/23 5/18/24
s 1
f 3/35/25 4/15/26 10/36/27 9/37/28
s 2
f 4/11/29 6/6/30 11/12/31 10/16/32
s 3
f 6/24/33 5/23/34 12/27/35 11/28/36
s off
f 5/18/37 3/14/38 9/31/39 12/32/40
s 1
f 9/37/28 10/36/27 14/38/41 13/39/42
s 2
f 10/16/32 11/12/31 15/17/43 14/40/44
s 3
f 11/28/36 12/27/35 16/29/45 15/30/46
s off
f 12/32/47 9/31/48 13/33/49 16/34/50
g default
v -50.014240 3.936279 1.509241
v -50.014240 3.936279 1.215451
v -50.014240 12.798042 1.509241
v -50.014240 12.798042 1.215451
v -50.308034 12.798042 1.509241
v -50.308034 12.798042 1.215451
v -50.308034 3.936279 1.509241
v -50.308034 3.936279 1.215451
vt 0.156491 0.084544
vt 0.032464 0.081116
vt 0.375000 0.250000
vt 0.625000 0.250000
vt 0.375000 0.500000
vt 0.625000 0.500000
vt 0.375000 0.750000
vt 0.625000 0.750000
vt 0.375000 1.000000
vt 0.625000 1.000000
vt 0.102801 0.081116
vt 0.102801 0.918885
vt 0.347575 0.079733
vt 0.401747 0.079733
vt 0.315030 0.076617
vt 0.271401 0.076617
vt 0.271401 0.923383
vt 0.315030 0.923383
vt 0.401747 0.920267
vt 0.347575 0.920267
vt 0.216889 0.084544
vt 0.216889 0.915456
vt 0.156491 0.915456
vt 0.032464 0.918885
vn 1.000000 0.000000 0.000000
vn 1.000000 0.000000 0.000000
vn 1.000000 0.000000 0.000000
vn 1.000000 0.000000 0.000000
vn 0.000000 1.000000 0.000000
vn 0.000000 1.000000 0.000000
vn 0.000000 1.000000 0.000000
vn 0.000000 1.000000 0.000000
vn -1.000000 0.000000 -0.000000
vn -1.000000 0.000000 -0.000000
vn -1.000000 0.000000 -0.000000
vn -1.000000 0.000000 -0.000000
vn 0.000000 -1.000000 0.000000
vn 0.000000 -1.000000 0.000000
vn 0.000000 -1.000000 0.000000
vn 0.000000 -1.000000 0.000000
vn 0.000000 0.000000 -1.000000
vn 0.000000 0.000000 -1.000000
vn 0.000000 0.000000 -1.000000
vn 0.000000 0.000000 -1.000000
vn -0.000000 0.000000 1.000000
vn -0.000000 0.000000 1.000000
vn -0.000000 0.000000 1.000000
vn -0.000000 0.000000 1.000000
s off
g group3 group4 pCube1
usemtl lambert4SG
f 17/41/51 18/61/52 20/62/53 19/63/54
f 19/43/55 20/44/56 22/46/57 21/45/58
f 21/55/59 22/56/60 24/57/61 23/58/62
f 23/47/63 24/48/64 18/50/65 17/49/66
f 18/42/67 24/51/68 22/52/69 20/64/70
f 23/53/71 17/54/72 19/59/73 21/60/74
g default
v -48.427594 3.933863 -0.449858
v -48.427594 3.933863 -0.743647
v -48.427594 6.871756 -0.449858
v -48.427594 6.871756 -0.743647
v -48.721388 6.871756 -0.449857
v -48.721388 6.871756 -0.743647
v -48.721388 3.933862 -0.449857
v -48.721388 3.933862 -0.743647
v -48.427594 6.916833 -0.449565
v -48.427594 7.134910 -0.696099
v -48.721388 7.134910 -0.696098
v -48.721388 6.916833 -0.449565
v -48.427594 9.359552 1.455398
v -48.427594 9.582246 1.263774
v -48.721388 9.582247 1.263774
v -48.721388 9.359552 1.455398
vt 0.611787 0.071851
vt 0.469129 0.073634
vt 0.640621 0.050515
vt 0.530868 0.073634
vt 0.322465 0.160934
vt 0.530868 0.475670
vt 0.375000 0.734335
vt 0.625000 0.734335
vt 0.375000 0.984335
vt 0.625000 0.984335
vt 0.469129 0.475670
vt 0.530867 0.513571
vt 0.355633 0.160934
vt 0.355633 0.518492
vt 0.871528 0.316937
vt 0.469129 0.513571
vt 0.530867 0.926366
vt 0.322465 0.518492
vt 0.375000 0.250000
vt 0.625000 0.250000
vt 0.625000 0.500000
vt 0.375000 0.500000
vt 0.080967 0.644571
vt 0.051508 0.625151
vt 0.287419 0.382658
vt 0.316878 0.402077
vt 0.077376 0.648311
vt 0.035145 0.650015
vt 0.072241 0.975850
vt 0.035145 0.981565
vt 0.355633 0.523986
vt 0.322465 0.523986
vt 0.355633 0.872947
vt 0.322465 0.872947
vt 0.842695 0.338272
vt 0.887545 0.344253
vt 0.846209 0.342381
vt 0.887545 0.708518
vt 0.851235 0.702239
vt 0.469129 0.926366
vn 1.000000 0.000000 0.000000
vn 1.000000 0.000000 0.000000
vn 1.000000 0.000000 0.000000
vn 1.000000 0.000000 0.000000
vn 0.000001 0.652249 0.758005
vn 0.000001 0.652249 0.758005
vn 0.000001 0.652249 0.758005
vn 0.000001 0.652249 0.758005
vn -1.000000 0.000000 -0.000000
vn -1.000000 0.000000 -0.000000
vn -1.000000 0.000000 -0.000000
vn -1.000000 0.000000 -0.000000
vn 0.000002 -1.000000 0.000000
vn 0.000002 -1.000000 0.000000
vn 0.000002 -1.000000 0.000000
vn 0.000002 -1.000000 0.000000
vn 0.000000 0.000000 -1.000000
vn 0.000000 0.000000 -1.000000
vn 0.000000 0.000000 -1.000000
vn 0.000000 0.000000 -1.000000
vn 0.000000 0.000000 1.000000
vn 0.000000 0.000000 1.000000
vn 0.000000 0.000000 1.000000
vn 0.000000 0.000000 1.000000
vn 1.000000 0.000000 0.000000
vn 1.000000 0.000000 0.000000
vn 1.000000 0.000000 0.000000
vn 1.000000 0.000000 0.000000
vn -0.000000 0.177807 -0.984065
vn -0.000000 0.177807 -0.984065
vn 0.000001 0.595161 -0.803607
vn 0.000001 0.595161 -0.803607
vn -1.000000 0.000000 0.000000
vn -1.000000 0.000000 0.000000
vn -1.000000 0.000000 0.000000
vn -1.000000 0.000000 0.000000
vn 0.000001 -0.006486 0.999979
vn 0.000001 -0.006486 0.999979
vn 0.000001 -0.006486 0.999979
vn 0.000001 -0.006486 0.999979
vn 1.000000 0.000000 0.000000
vn 1.000000 0.000000 0.000000
vn 0.000001 0.625084 -0.780557
vn 0.000001 0.625085 -0.780557
vn -1.000000 0.000000 0.000000
vn -1.000000 0.000000 0.000000
vn -0.000000 -0.614960 0.788558
vn -0.000000 -0.614960 0.788558
vn -0.000000 -0.614960 0.788558
vn -0.000000 -0.614960 0.788558
s off
g group3 group4 pCube5
usemtl lambert4SG
f 25/65/75 26/67/76 28/79/77 27/99/78
f 37/83/79 38/84/80 39/85/81 40/86/82
f 29/87/83 30/88/84 32/89/85 31/90/86
f 31/71/87 32/72/88 26/74/89 25/73/90
f 26/66/91 32/68/92 30/70/93 28/75/94
f 31/69/95 25/77/96 27/78/97 29/82/98
s 1
f 27/99/99 28/79/100 34/100/101 33/101/102
s 2
f 28/75/103 30/70/104 35/76/105 34/80/106
s 3
f 30/88/107 29/87/108 36/91/109 35/92/110
s off
f 29/82/111 27/78/112 33/95/113 36/96/114
s 1
f 33/101/102 34/100/101 38/102/115 37/103/116
s 2
f 34/80/106 35/76/105 39/81/117 38/104/118
s 3
f 35/92/110 36/91/109 40/93/119 39/94/120
s off
f 36/96/121 33/95/122 37/97/123 40/98/124
g default
v -48.375433 3.936279 1.509241
v -48.375433 3.936279 1.215451
v -48.375433 12.798042 1.509241
v -48.375433 12.798042 1.215451
v -48.669227 12.798042 1.509241
v -48.669227 12.798042 1.215451
v -48.669227 3.936279 1.509241
v -48.669227 3.936279 1.215451
vt 0.156491 0.084544
vt 0.032464 0.081116
vt 0.375000 0.250000
vt 0.625000 0.250000
vt 0.375000 0.500000
vt 0.625000 0.500000
vt 0.375000 0.750000
vt 0.625000 0.750000
vt 0.375000 1.000000
vt 0.625000 1.000000
vt 0.102801 0.081116
vt 0.102801 0.918885
vt 0.347575 0.079733
vt 0.401747 0.079733
vt 0.315030 0.076617
vt 0.271401 0.076617
vt 0.271401 0.923383
vt 0.315030 0.923383
vt 0.401747 0.920267
vt 0.347575 0.920267
vt 0.216889 0.084544
vt 0.216889 0.915456
vt 0.156491 0.915456
vt 0.032464 0.918885
vn 1.000000 0.000000 0.000000
vn 1.000000 0.000000 0.000000
vn 1.000000 0.000000 0.000000
vn 1.000000 0.000000 0.000000
vn 0.000000 1.000000 0.000000
vn 0.000000 1.000000 0.000000
vn 0.000000 1.000000 0.000000
vn 0.000000 1.000000 0.000000
vn -1.000000 0.000000 -0.000000
vn -1.000000 0.000000 -0.000000
vn -1.000000 0.000000 -0.000000
vn -1.000000 0.000000 -0.000000
vn 0.000000 -1.000000 0.000000
vn 0.000000 -1.000000 0.000000
vn 0.000000 -1.000000 0.000000
vn 0.000000 -1.000000 0.000000
vn 0.000000 0.000000 -1.000000
vn 0.000000 0.000000 -1.000000
vn 0.000000 0.000000 -1.000000
vn 0.000000 0.000000 -1.000000
vn -0.000000 0.000000 1.000000
vn -0.000000 0.000000 1.000000
vn -0.000000 0.000000 1.000000
vn -0.000000 0.000000 1.000000
s off
g group3 group4 pCube6
usemtl lambert4SG
f 41/105/125 42/125/126 44/126/127 43/127/128
f 43/107/129 44/108/130 46/110/131 45/109/132
f 45/119/133 46/120/134 48/121/135 47/122/136
f 47/111/137 48/112/138 42/114/139 41/113/140
f 42/106/141 48/115/142 46/116/143 44/128/144
f 47/117/145 41/118/146 43/123/147 45/124/148
g default
v -50.083217 0.714781 5.950192
v -48.703044 0.714781 5.950192
v -50.083217 12.615166 5.950192
v -48.703044 12.615166 5.950192
v -50.083217 12.615166 -5.950192
v -48.703044 12.615166 -5.950192
v -50.083217 0.714781 -5.950192
v -48.703044 0.714781 -5.950192
v -50.083217 3.941963 5.950192
v -48.703044 3.941963 5.950192
v -48.703044 3.941963 -5.950192
v -50.083217 3.941963 -5.950192
v -50.083217 12.615166 1.443243
v -48.703044 12.615166 1.443243
v -48.703044 3.941963 1.443243
v -48.703044 0.714781 1.443243
v -50.083217 0.714781 1.443243
v -50.083217 3.941963 1.443243
v -50.083217 0.714781 -0.495471
v -48.703044 0.714781 -0.495471
v -48.703044 3.941963 -0.495471
v -48.703044 12.615166 -0.495471
v -50.083217 12.615166 -0.495471
v -50.083217 3.941963 -0.495471
v -48.703044 7.074742 -0.495471
v -48.703044 9.349529 1.443243
v -50.083217 7.160884 -0.495471
v -50.083217 9.457296 1.443243
vt 0.375000 0.000000
vt 0.625000 0.000000
vt 0.375000 0.250000
vt 0.625000 0.250000
vt 0.442016 0.000000
vt 0.557984 0.000000
vt 0.442016 0.458365
vt 0.557984 0.458365
vt 0.557984 0.621277
vt 0.442016 0.621277
vt 0.875000 0.000000
vt 0.875000 0.250000
vt 0.125000 0.000000
vt 0.125000 0.250000
vt 0.375000 0.067796
vt 0.625000 0.067796
vt 0.557984 0.728817
vt 0.875000 0.067796
vt 0.125000 0.067796
vt 0.442016 0.728817
vt 0.280319 0.250000
vt 0.442016 0.378723
vt 0.557984 0.378723
vt 0.719681 0.250000
vt 0.719681 0.067796
vt 0.557984 1.000000
vt 0.719681 0.000000
vt 0.280319 0.000000
vt 0.442016 1.000000
vt 0.280319 0.067796
vt 0.239591 0.000000
vt 0.442016 0.000000
vt 0.557984 0.000000
vt 0.760409 0.000000
vt 0.760409 0.067796
vt 0.557984 0.541635
vt 0.760409 0.250000
vt 0.239591 0.250000
vt 0.442016 0.541635
vt 0.239591 0.067796
vt 0.760409 0.133608
vt 0.719681 0.177525
vt 0.239591 0.135418
vt 0.280319 0.183660
vt 0.586482 0.321823
vt 0.573123 0.479124
vt 0.413510 0.458098
vt 0.426870 0.307484
vt 0.463056 0.665567
vt 0.543685 0.657876
vt 0.536936 0.524279
vt 0.456307 0.532063
vt 0.111858 0.920915
vt 0.111858 0.808050
vt 0.181636 0.804946
vt 0.181636 0.920915
vt 0.442016 0.000000
vt 0.557984 0.000000
vt 0.557984 1.000000
vt 0.442016 1.000000
vt 0.557984 1.000000
vt 0.442016 1.000000
vt 0.437158 0.271183
vt 0.562842 0.271183
vt 0.562842 1.000000
vt 0.437158 1.000000
vt 0.437158 0.000000
vt 0.562842 0.000000
vn 0.000000 0.000000 1.000000
vn 0.000000 0.000000 1.000000
vn 0.000000 0.000000 1.000000
vn 0.000000 0.000000 1.000000
vn 0.000000 1.000000 0.000000
vn 0.000000 1.000000 0.000000
vn 0.000000 1.000000 0.000000
vn 0.000000 1.000000 0.000000
vn 0.000000 0.000000 -1.000000
vn 0.000000 0.000000 -1.000000
vn 0.000000 0.000000 -1.000000
vn 0.000000 0.000000 -1.000000
vn 0.000000 -1.000000 0.000000
vn 0.000000 -1.000000 0.000000
vn 0.000000 -1.000000 0.000000
vn 0.000000 -1.000000 0.000000
vn -1.000000 -0.000000 0.000000
vn -1.000000 -0.000000 0.000000
vn -1.000000 -0.000000 0.000000
vn -1.000000 -0.000000 0.000000
vn 0.000000 0.000000 1.000000
vn 0.000000 0.000000 1.000000
vn 1.000000 0.000000 0.000000
vn 1.000000 0.000000 0.000000
vn 1.000000 0.000000 0.000000
vn 1.000000 0.000000 0.000000
vn 0.000000 0.000000 -1.000000
vn 0.000000 0.000000 -1.000000
vn -1.000000 0.000000 0.000000
vn -1.000000 0.000000 0.000000
vn -1.000000 0.000000 0.000000
vn -1.000000 0.000000 0.000000
vn 0.000000 1.000000 0.000000
vn 0.000000 1.000000 0.000000
vn 1.000000 0.000000 0.000000
vn 1.000000 0.000000 0.000000
vn 1.000000 0.000000 0.000000
vn 1.000000 0.000000 0.000000
vn 1.000000 0.000000 0.000000
vn 0.000000 -1.000000 0.000000
vn 0.000000 -1.000000 0.000000
vn -1.000000 0.000000 0.000000
vn -1.000000 0.000000 0.000000
vn -1.000000 0.000000 0.000000
vn 0.000000 -1.000000 0.000000
vn 0.000000 -1.000000 0.000000
vn 1.000000 0.000000 0.000000
vn 1.000000 0.000000 0.000000
vn 1.000000 0.000000 0.000000
vn 1.000000 0.000000 0.000000
vn 1.000000 0.000000 0.000000
vn 0.000000 1.000000 0.000000
vn 0.000000 1.000000 0.000000
vn -1.000000 0.000000 0.000000
vn -1.000000 0.000000 0.000000
vn -1.000000 0.000000 0.000000
vn 0.000000 1.000000 0.000000
vn 0.000000 1.000000 0.000000
vn 0.000000 1.000000 0.000000
vn 0.000000 1.000000 0.000000
vn 0.000000 0.000000 -1.000000
vn 0.000000 0.000000 -1.000000
vn 0.000000 0.000000 -1.000000
vn 0.000000 0.000000 -1.000000
vn 0.000000 0.000000 1.000000
vn 0.000000 0.000000 1.000000
vn 0.000000 0.000000 1.000000
vn 0.000000 0.000000 1.000000
vn -0.045394 -0.646198 0.761819
vn -0.045394 -0.646198 0.761819
vn -0.045394 -0.646197 0.761819
vn -0.045394 -0.646197 0.761819
s 1
g group4 pCube1
usemtl lambert3SG
f 57/191/149 58/192/150 52/193/151 51/194/152
s 2
f 61/150/153 62/151/154 70/164/155 71/167/156
s 3
f 53/133/157 54/134/158 59/145/159 60/148/160
s 4
f 67/135/161 68/136/162 64/137/163 65/138/164
s 5
f 71/166/165 75/171/166 76/172/167 61/149/168
s 1
f 49/195/169 50/196/170 58/192/150 57/191/149
s 6
f 63/153/171 64/155/172 68/162/173 69/163/174
s 3
f 60/148/160 59/145/159 56/189/175 55/190/176
s 5
f 72/168/177 67/159/178 65/156/179 66/158/180
s 2
f 51/185/181 52/186/182 62/151/154 61/150/153
s 6
f 58/144/183 63/153/171 74/170/184 62/152/185 52/132/186
f 50/130/187 64/155/172 63/153/171 58/144/183
s 4
f 65/138/164 64/137/163 50/154/188 49/157/189
s 5
f 66/158/180 65/156/179 49/129/190 57/143/191
f 61/149/168 76/172/167 66/158/180 57/143/191 51/131/192
s 4
f 55/160/193 56/161/194 68/136/162 67/135/161
s 6
f 69/163/174 68/162/173 56/139/195 59/146/196
f 70/165/197 73/169/198 69/163/174 59/146/196 54/140/199
s 2
f 71/167/156 70/164/155 54/187/200 53/188/201
s 5
f 60/147/202 72/168/177 75/171/166 71/166/165 53/142/203
f 55/141/204 67/159/178 72/168/177 60/147/202
s 6
f 62/152/185 74/170/184 73/169/198 70/165/197
s off
f 63/173/205 69/174/206 72/175/207 66/176/208
f 66/176/209 76/177/210 74/178/211 63/173/212
f 69/181/213 73/182/214 75/183/215 72/184/216
f 73/179/217 74/178/218 76/177/219 75/180/220
